<?xml version="1.0" encoding="UTF-8"?>
<!DOCTYPE svg PUBLIC "-//W3C//DTD SVG 1.1//EN" "http://www.w3.org/Graphics/SVG/1.1/DTD/svg11.dtd">
<!-- Creator: CorelDRAW X6 -->
<svg xmlns="http://www.w3.org/2000/svg" xml:space="preserve" width="49.7075in" height="6.63964in" version="1.1" style="shape-rendering:geometricPrecision; text-rendering:geometricPrecision; image-rendering:optimizeQuality; fill-rule:evenodd; clip-rule:evenodd"
viewBox="0 0 61210 8176"
 xmlns:xlink="http://www.w3.org/1999/xlink">
 <defs>
  <style type="text/css">
   <![CDATA[
    .fil1 {fill:#006391}
    .fil0 {fill:#0082BF}
   ]]>
  </style>
 </defs>
 <g id="Layer_x0020_1">
  <metadata id="CorelCorpID_0Corel-Layer"/>
  <g id="_862467760">
   <polygon class="fil0" points="53980,8020 55995,8020 55995,5103 59176,5103 59176,8020 61210,8020 61210,153 59176,153 59176,3202 55995,3202 55995,153 53980,153 "/>
   <path class="fil0" d="M36395 8020l6045 0 2 -1865c-1,-91 12,-103 -76,-113l-3937 2 0 -960 3295 0 0 -1844c-384,0 -3169,-23 -3295,15 -38,-39 -13,25 -36,-70l-1 -227c0,-194 -19,-733 17,-849 180,-35 3732,-11 4017,-11l1 -1939 -6032 0 0 7861z"/>
   <path class="fil0" d="M44134 3917c0,477 -9,715 124,1175 89,311 184,617 351,892 34,55 52,104 87,158 66,105 131,201 203,305 278,403 892,959 1313,1171 418,211 591,311 1074,432 560,139 1251,167 1827,53 482,-96 902,-253 1328,-498 448,-258 860,-617 1179,-1023 98,-124 413,-581 422,-689 -61,-14 -168,-68 -226,-94 -77,-34 -146,-61 -222,-98l-918 -400c-80,-33 -146,-59 -224,-96 -403,-188 -170,-131 -561,305 -594,662 -1576,900 -2430,520 -278,-124 -429,-225 -629,-425 -214,-214 -298,-320 -444,-610 -493,-978 -74,-2287 957,-2801 453,-226 662,-217 1139,-217 386,0 907,235 1184,473 3,3 7,6 10,9 261,233 337,321 501,629 81,-19 155,-71 232,-107l1632 -740c-177,-264 -358,-614 -616,-871 -234,-232 -320,-335 -591,-538l-706 -423c-338,-162 -775,-305 -1147,-359 -869,-126 -1633,-13 -2367,304l-484 250 -451 320c-284,216 -532,475 -746,760 -38,51 -69,96 -102,143l-194 314c-186,332 -254,521 -364,897 -78,269 -138,539 -138,878z"/>
   <polygon class="fil0" points="27510,2129 29957,2129 29957,8020 31991,8020 31991,2129 34438,2129 34438,153 27510,153 "/>
   <g>
    <path class="fil0" d="M7271 8020l697 0c18,-38 24,-67 40,-110l751 -1659 4914 0c17,74 65,145 97,223l299 661c32,73 62,145 100,220l295 665 678 0c-9,-102 -166,-383 -215,-500l-726 -1589c-20,-44 -40,-76 -62,-127 -41,-96 -75,-155 -113,-245 -39,-92 -69,-164 -108,-250 -36,-81 -81,-152 -118,-239l-672 -1473c-250,-496 -535,-1194 -791,-1713 -40,-81 -64,-165 -106,-251l-684 -1480 -678 0c-5,57 -166,382 -215,500l-563 1225c-149,298 -305,686 -452,978l-226 489c-22,46 -32,78 -50,119 -20,44 -39,76 -61,127l-56 113c-21,45 -35,88 -54,134l-788 1715c-79,159 -147,332 -226,489 -80,158 -146,330 -226,489 -42,83 -66,162 -108,250 -21,44 -10,18 -26,49 -10,20 -19,41 -30,64l-457 992c-22,45 -35,88 -56,132zm1732 -2340l4400 0 -2206 -4861 -2193 4861z"/>
    <path class="fil0" d="M17343 8020l621 0 0 -6512 100 182c37,73 66,127 100,201l94 188c250,496 647,1345 885,1769 153,274 495,1015 593,1176l593 1177c266,532 523,1058 797,1575l433 0c20,-86 497,-1012 577,-1173 37,-74 66,-133 100,-201l742 -1479c25,-55 26,-46 55,-96l490 -978c136,-271 260,-520 395,-790l300 -584c35,-82 54,-130 95,-206l195 -389c70,-124 159,-349 213,-389l0 6531 621 0 0 -7867 -602 0c-22,92 -151,320 -201,420 -74,149 -142,283 -213,427l-427 853c-21,42 -28,60 -50,100l-371 739c-156,269 -291,566 -432,848 -308,616 -737,1524 -1060,2102l-634 1286c-66,-48 -395,-752 -439,-841l-860 -1700c-143,-285 -281,-563 -427,-853l-106 -214c-248,-449 -557,-1164 -798,-1593l-752 -1488c-25,-49 -25,-87 -82,-87l-546 0 0 7867z"/>
    <path class="fil0" d="M4767 5498c0,313 -63,632 -163,853 -126,280 -202,425 -407,629 -89,89 -167,163 -274,235 -815,545 -2032,463 -2720,-225 -162,-162 -85,-94 -181,-214 -118,-149 -150,-232 -234,-425 -205,-475 -164,-1093 -164,-1624l-621 0c0,832 -63,1370 320,2108 100,192 255,417 409,570 153,151 356,310 545,415 132,73 310,159 455,203 77,23 168,53 247,73 576,148 1383,90 1915,-157 84,-39 126,-73 207,-113 789,-397 1287,-1370 1287,-2271l0 -5402 -621 0 0 5345z"/>
   </g>
   <path class="fil1" d="M36395 8020l0 -7861 6032 0 -1 1939c-285,0 -3837,-24 -4017,11 -36,116 -17,654 -17,849l1 227c23,95 -1,31 36,70l0 -1125 4010 0 0 -1976 -6062 0c0,156 -27,7728 12,7855 1,3 3,9 6,13z"/>
  </g>
 </g>
</svg>
